<svg width="1000px" height="1000px" style="background-color: Black;" xmlns="http://www.w3.org/2000/svg" version="1.1">
<circle cx="500" cy="500" r="300" stroke="White" stroke-width="40" fill="none" />
<path  d="M 227.76388924317916 652.0279579551077 L 172.74131886264914 738.4260459260413 L 261.1296665109676 826.8143935743597 L 347.9720420448923 772.2361107568208 M 227.76388924317916 652.0279579551077" fill="White"/>
<path  d="M 199.99999999999997 415.00000000000006 L 100.00049347981417 437.1858412514121 L 100.0004934798142 562.1858412514121 L 200.00000000000003 585 M 199.99999999999997 415.00000000000006" fill="White"/>
<path  d="M 347.97204204489225 227.76388924317916 L 261.5739540739588 172.74131886264914 L 173.1856064256404 261.12966651096764 L 227.76388924317928 347.97204204489236 M 347.97204204489225 227.76388924317916" fill="White"/>
<path  d="M 585 199.99999999999997 L 562.8141587485879 100.00049347981417 L 437.8141587485879 100.00049347981421 L 414.99999999999994 200.00000000000003 M 585 199.99999999999997" fill="White"/>
<path  d="M 772.2361107568207 347.97204204489225 L 827.2586811373507 261.5739540739588 L 738.8703334890323 173.18560642564034 L 652.0279579551077 227.76388924317916 M 772.2361107568207 347.97204204489225" fill="White"/>
<path  d="M 800 585 L 899.9995065201858 562.8141587485878 L 899.9995065201858 437.81415874858783 L 800 414.99999999999994 M 800 585" fill="White"/>
<path  d="M 652.0279579551078 772.2361107568207 L 738.4260459260413 827.2586811373508 L 826.8143935743597 738.8703334890322 L 772.2361107568207 652.0279579551076 M 652.0279579551078 772.2361107568207" fill="White"/>
<path  d="M 415.0000000000001 800 L 437.1858412514122 899.9995065201858 L 562.1858412514123 899.9995065201858 L 585.0000000000001 800 M 415.0000000000001 800" fill="White"/>
<path fill="none" stroke-linejoin="bevel" stroke-linecap="square" stroke-width="27" stroke="White"  d=" M 522.0588235294117 313.3333333333333 L 522.0588235294117 313.3333333333333 L 395 313.3333333333333 L 395 500 "/>
<path fill="none" stroke-linejoin="bevel" stroke-linecap="square" stroke-width="27" stroke="White"  d=" M 610.8490566037735 366.6666666666667 L 610.8490566037735 366.6666666666667 L 610.8490566037735 408.1081081081081 L 500 408.1081081081081 L 500 460 "/>
<path fill="none" stroke-linejoin="bevel" stroke-linecap="square" stroke-width="27" stroke="White"  d=" M 567.3076923076923 481.8181818181818 L 567.3076923076923 481.8181818181818 L 567.3076923076923 540.0960384153661 L 500 540.0960384153661 L 500 684.6153846153845 L 418.1034482758621 684.6153846153845 "/>

</svg>